<svg width="133" height="47" viewBox="0 0 133 47" fill="none" xmlns="http://www.w3.org/2000/svg">
<path d="M79.1379 5.89704C79.6226 6.05944 80.1805 6.62015 80.3567 7.19661C80.5402 7.71832 80.3078 8.02887 79.8158 7.9216C75.6792 6.6524 67.6408 5.1983 58.3407 5.11992C70.0169 13.0333 65.8564 23.5945 57.5086 32.4965C48.5583 42.0556 33.72 46.4225 22.6413 46.3816C18.9043 46.3819 15.4907 45.858 12.7287 44.7321C9.66158 43.5184 7.26046 41.5928 5.89988 38.9948C4.15033 35.5188 4.58527 30.8752 8.32016 25.2369C15.3571 14.3613 25.7068 8.52094 36.4212 5.62137C41.2251 4.28091 45.898 3.50004 50.6236 3.21237C46.3159 1.76802 32.9714 1.80028 24.3266 7.70782C30.2805 0.588837 44.4225 -1.38809 54.7526 3.0706C65.2916 2.88757 74.502 4.57533 79.1383 5.89704H79.1379ZM10.4042 24.9796C10.7208 24.749 11.0656 24.369 11.2873 24.0142C11.6214 23.473 11.5209 22.8017 11.1013 22.0167C10.6276 22.5282 10.1761 23.0421 9.98502 23.5289C9.82245 23.9595 9.86543 24.474 10.4042 24.9796ZM54.2568 5.15442C48.6013 5.28907 43.7812 5.99905 37.8009 7.6073C27.2742 10.5264 17.0637 16.27 10.0493 26.9802C6.61528 32.2595 6.07522 36.2779 7.53113 39.1092C8.33037 40.6998 10.0012 41.9349 12.2236 42.8369C14.7507 43.8267 17.9766 44.3311 21.5187 44.366C32.4178 44.3326 46.2865 39.641 55.0897 30.2338C61.9334 22.9059 67.3915 10.7773 54.8522 5.43947C54.6794 5.3097 54.4998 5.23543 54.2572 5.15405L54.2568 5.15442Z" fill="#FEFEFE"/>
<path d="M69.8254 22.3854C70.0309 22.0835 70.7157 22.2646 71.2638 22.7477C71.8805 23.2308 72.1546 23.8946 71.949 24.1966L69.4143 27.7585C71.812 26.7319 75.1 25.7662 76.4704 27.2754C77.087 27.8789 76.8815 29.2677 77.7718 29.3281C79.0732 29.3885 80.9913 29.1469 82.8409 28.6642C83.252 28.5435 83.6631 28.2416 84.0742 28.785C84.5538 29.3889 84.2797 29.57 83.8686 29.6304C81.882 30.1739 78.594 30.7773 77.1551 30.6569C75.3741 30.5362 74.8259 30.1135 73.3189 28.5439C72.2916 27.4573 66.1947 32.2266 66.1947 32.2266C66.0577 32.2869 62.4956 37.5996 62.153 38.1427C61.9475 38.4446 61.2623 38.2635 60.7146 37.7804C60.0979 37.2973 59.8238 36.6331 60.0294 36.3316L69.8254 22.3858V22.3854ZM86.8141 23.5927C87.0882 23.3512 87.7733 23.5927 88.3211 24.0758C88.8692 24.6192 89.0743 25.2227 88.8692 25.5246C83.6631 30.777 83.252 34.3993 83.7316 34.7616C84.5534 35.3654 89.8285 32.407 93.5276 26.9135L93.7331 26.6719C94.0072 26.4304 94.6924 26.6116 95.2401 27.1546C95.7883 27.6377 96.0623 28.3016 95.7883 28.5431C95.7883 28.5431 95.6512 28.7243 95.3091 28.9658C94.4183 29.9316 89.2807 36.3308 94.4183 34.1577C97.0901 33.0108 100.673 30.316 102.454 28.2637C102.728 27.9618 103.002 27.3579 103.619 27.9014C104.167 28.3841 103.392 29.2073 103.118 29.4489C101.268 31.5619 98.6652 34.3993 95.9249 35.5466C93.5272 36.5727 90.5132 36.0897 90.1021 33.4939C83.3205 38.625 77.7714 37.6593 81.539 30.2942C82.7723 27.8792 85.0326 25.2835 86.8137 23.5931L86.8141 23.5927ZM124.148 27.7585C124.423 28.3623 124.217 28.7243 123.669 28.6035C123.121 28.4827 122.436 27.9396 122.162 27.3962C120.792 26.2493 117.435 27.6377 116.202 28.5435C113.667 30.3546 112.229 32.5281 111.476 35.305C113.873 34.7016 120.107 28.3019 120.107 28.3019C120.381 28.0604 120.997 28.2416 121.614 28.785C122.093 29.2681 122.367 29.8116 122.162 30.1131C122.025 30.415 121.203 31.9846 121.614 33.675C121.888 35.1239 130.793 28.5435 130.93 28.4831C131.204 28.2416 131.752 27.9396 132.3 28.4227C132.848 28.9662 132.78 29.4489 132.506 29.6904C127.985 33.2523 125.313 35.3654 123.464 36.2104C120.313 37.6593 117.915 36.8139 117.984 33.8558C115.517 35.9085 112.983 37.78 111.476 37.1762C110.928 36.995 110.517 36.6327 110.106 36.2704C109.421 35.4854 109.147 34.6404 109.284 33.735C109.352 33.0108 109.626 32.2258 110.037 31.4408C110.928 29.7504 112.503 27.8789 114.284 26.6112C117.367 24.3773 122.985 24.2566 124.149 27.7581L124.148 27.7585Z" fill="#FEFEFE"/>
<path d="M101.117 38.7459C100.785 38.6424 100.498 38.525 100.262 38.3968C99.8538 38.153 99.5066 37.7978 99.2036 37.3327C98.9048 36.8763 98.7354 36.4258 98.6963 35.9818C98.6954 35.81 98.7082 35.6427 98.7435 35.4961C98.7814 35.3434 98.8601 35.1281 98.9755 34.842C99.2129 34.2512 99.5678 33.6969 100.052 33.1898C100.526 32.6865 101.265 32.0673 102.276 31.334L103.298 30.6109L102.984 29.128C102.655 27.5651 102.686 26.2861 103.083 25.2997C103.23 24.9341 103.425 24.6044 103.659 24.3137C104.15 23.7474 104.731 23.2707 105.419 22.8956C105.923 22.6278 106.432 22.4647 106.957 22.4159C107.478 22.3589 107.957 22.4058 108.385 22.5397C108.752 22.6541 109.07 22.8289 109.337 23.0764C109.689 23.3989 109.869 23.7841 109.869 24.2297C109.877 24.3628 109.802 24.6273 109.646 25.0169C109.452 25.4981 109.238 25.8563 109.006 26.1061C108.212 26.9005 107.645 27.2444 107.293 27.1345C107.21 27.1086 107.139 27.0524 107.093 26.9556C107.039 26.8566 107.032 26.7583 107.076 26.6484C107.125 26.5265 107.266 26.351 107.496 26.1076C107.733 25.8661 107.93 25.5506 108.089 25.1546L108.238 24.7829C108.278 24.6445 108.258 24.5215 108.172 24.4056C108.084 24.2957 108.005 24.2229 107.922 24.1971C107.832 24.1689 107.685 24.1851 107.487 24.2327C107.293 24.289 107.052 24.4052 106.77 24.5849C106.481 24.7619 106.235 24.9663 106.02 25.194C105.732 25.5428 105.491 25.9475 105.31 26.3983C105.18 26.7212 105.1 27.0182 105.057 27.2995C105.034 27.5118 105.031 27.771 105.051 28.0864C105.073 28.4015 105.097 28.6899 105.137 28.9566C105.171 29.221 105.21 29.3564 105.251 29.3691C105.293 29.3822 105.987 29.1257 107.33 28.592C108.677 28.0665 109.709 27.7237 110.433 27.5658C111.158 27.4083 115.299 26.5671 115.513 26.6338C115.624 26.6683 115.706 26.731 115.776 26.812C115.844 26.8904 115.863 26.9627 115.841 27.0171C115.807 27.1026 111.747 28.104 110.962 28.3205C110.17 28.5384 109.283 28.7833 108.335 29.1662C107.378 29.5529 106.661 29.8844 106.183 30.1669C105.753 30.4032 105.525 30.5648 105.498 30.6319L105.773 31.7669C106.357 34.0881 106.429 35.804 105.984 36.9127C105.703 37.6133 105.116 38.1635 104.221 38.57C103.762 38.7628 103.373 38.881 103.049 38.9308C102.478 39.034 101.835 38.9702 101.117 38.7459H101.117ZM101.545 36.8298C101.821 36.916 102.062 36.9363 102.29 36.8909C102.509 36.8496 102.68 36.793 102.783 36.7293C102.896 36.6617 102.993 36.5549 103.078 36.403C103.16 36.2571 103.257 36.0339 103.377 35.7354C103.517 35.3881 103.608 35.1221 103.654 34.9305C103.702 34.7332 103.735 34.4965 103.748 34.2126C103.768 33.931 103.772 33.6305 103.769 33.3076C103.774 32.9866 103.756 32.7004 103.732 32.4525C103.7 32.2023 103.671 32.0425 103.649 31.981C103.618 31.9233 103.586 31.8861 103.559 31.8775C103.524 31.8666 103.428 31.9124 103.273 32.0283C102.809 32.3497 102.352 32.7694 101.903 33.2873C101.323 33.9358 100.926 34.5179 100.72 35.0299C100.453 35.6937 100.559 36.2064 101.033 36.574C101.177 36.6805 101.344 36.7671 101.545 36.8298Z" fill="#FEFEFE"/>
<path fill-rule="evenodd" clip-rule="evenodd" d="M11.1171 21.9676C11.5741 22.9795 12.0593 23.7158 10.3915 25.0502C9.29049 24.134 9.99738 22.9904 11.1171 21.9676ZM6.86383 22.7605C6.5055 21.7932 7.32899 21.09 8.85555 20.5439C9.02408 21.8547 8.19164 22.4781 6.86383 22.7605ZM11.5205 11.2079C12.4649 10.5077 14.983 10.6251 15.5661 11.9284C14.5541 12.2791 12.1197 12.5131 11.5205 11.2079ZM24.5607 19.6303C23.2499 18.9488 21.5208 15.7784 22.2081 14.3431C24.0832 15.4033 25.6085 18.4256 24.5607 19.6303ZM9.7782 10.4499L10.5319 10.6855C10.4136 10.807 10.134 10.9642 9.87481 11.0028C8.16696 11.017 5.70711 10.4357 4.04267 11.1573C1.6241 12.2056 1.57345 14.6244 0.827412 16.1531C0.915507 16.1587 1.02701 16.1722 1.09127 16.1748C1.15085 16.1775 1.27768 16.1838 1.33641 16.1857C1.40237 16.188 1.65602 16.1771 1.74794 16.1643C4.16183 14.492 11.8244 13.857 13.5229 15.3392C12.2747 16.5311 7.24473 15.7188 4.87765 16.0544C0.464394 16.68 -0.0284282 19.6126 1.31683 22.0599C3.16384 19.745 6.68254 18.6877 9.44582 19.0204L10.128 19.3077L9.41731 19.6059C7.45284 20.3957 4.55719 19.9689 2.97999 21.4347C0.659735 23.5909 3.61496 24.8514 3.97798 27.1832L8.61594 28.2135C17.1944 30.588 12.3261 20.5716 15.5537 19.3077C17.957 21.2681 14.1476 27.0928 14.1289 28.632C25.0071 28.455 17.8629 18.1709 19.1665 16.605C20.7667 17.2261 21.2518 23.1599 21.2897 24.7385C21.3199 25.9935 20.9526 26.4541 20.9535 27.5845C24.1479 25.6091 25.783 24.985 28.1858 21.528C30.3741 18.3794 29.1548 17.2678 26.6175 14.642C28.5054 14.798 29.2153 15.9761 29.972 17.3593C32.2292 12.973 30.0039 4.64893 24.1539 8.60391L22.0085 9.84686C23.3487 7.97794 24.9978 5.84836 24.4169 3.92731C23.2814 0.171855 12.6441 -1.74582 8.26952 5.42942C10.317 5.25502 13.2331 5.52731 14.9111 6.96791L15.3861 7.61301C14.434 7.78816 12.95 7.06993 12.024 6.82201C6.9498 5.46468 5.4092 6.51296 3.42175 10.5703C5.02576 10.2868 6.67445 9.14025 9.7782 10.4503V10.4499Z" fill="#FEFEFE"/>
</svg>
